<svg xmlns="http://www.w3.org/2000/svg" viewBox="0 0 426.05 131.43"><defs><style>.cls-1{fill:#19585c;}</style></defs><title>errunds logo</title><g id="Layer_2" data-name="Layer 2"><g id="Layer_1-2" data-name="Layer 1"><path class="cls-1" d="M52.27,62.88q0,5.7-2.18,8c-1.46,1.53-3.88,2.3-7.28,2.3H14.07v3.16a12.46,12.46,0,0,0,3.58,9.33q3.57,3.52,10.12,3.52a39.64,39.64,0,0,0,6-.42,16.64,16.64,0,0,0,4.3-1.16c1.13-.56,2.22-1.13,3.28-1.69a6.16,6.16,0,0,1,2.91-.85A4.85,4.85,0,0,1,48,86.53a5.43,5.43,0,0,1-.25,7.64,16.25,16.25,0,0,1-4.6,3.52,30.89,30.89,0,0,1-6.86,2.61,33.51,33.51,0,0,1-8.43,1,31.47,31.47,0,0,1-11.27-1.94,28.17,28.17,0,0,1-8.8-5.22,23.49,23.49,0,0,1-5.76-7.7A22,22,0,0,1,0,77.07V64.22A25.82,25.82,0,0,1,7.52,45.9a26,26,0,0,1,8.37-5.57,26.89,26.89,0,0,1,10.67-2.07,27.78,27.78,0,0,1,11.76,2.25,23,23,0,0,1,8,5.82,23.4,23.4,0,0,1,4.55,7.94A27.11,27.11,0,0,1,52.27,62.88ZM26.44,50a11.27,11.27,0,0,0-8.67,3.45,14.81,14.81,0,0,0-3.7,9.16H38.81V60.82a9.75,9.75,0,0,0-3.46-7.88A13.35,13.35,0,0,0,26.44,50Z"/><path class="cls-1" d="M88.53,51.48a28.81,28.81,0,0,0-4.85.37A8.76,8.76,0,0,0,80,53.3a6.67,6.67,0,0,0-2.3,3.16,15,15,0,0,0-.79,5.33V95.63A5.29,5.29,0,0,1,75,99.57a7.07,7.07,0,0,1-5,1.76,7.72,7.72,0,0,1-5.28-1.76,5.17,5.17,0,0,1-2-3.94V62.28q0-11.52,6.19-17.77t19.64-6.25q6.19,0,9.4,2.43a6.54,6.54,0,0,1,2.49,6.79,4.58,4.58,0,0,1-1.58,3.09,5.84,5.84,0,0,1-2.91,1.1,18.42,18.42,0,0,1-3.64,0A37.42,37.42,0,0,0,88.53,51.48Z"/><path class="cls-1" d="M105.51,28.2a5.17,5.17,0,0,1,2-3.94,7.67,7.67,0,0,1,5.28-1.76h17.1a48.62,48.62,0,0,1,13.82,1.7A23.5,23.5,0,0,1,152.87,29a18.07,18.07,0,0,1,5,7.39A27.94,27.94,0,0,1,159.48,46v.84a19.19,19.19,0,0,1-2.85,10.62q-2.85,4.42-10,7.09l13.46,27.53a4,4,0,0,1,.36,4.19,8.66,8.66,0,0,1-3.76,4.18,7.27,7.27,0,0,1-5.21.67,5.72,5.72,0,0,1-3.64-2.49L134.25,69.55a14.88,14.88,0,0,1-2.06.13H119.7V95.87a4.94,4.94,0,0,1-1.88,3.82,7.39,7.39,0,0,1-5,1.64,7.28,7.28,0,0,1-5.28-1.94,5.73,5.73,0,0,1-2-4.12Zm14.19,6.43V58h10.19q8.25,0,11.82-2.79a8.66,8.66,0,0,0,3.58-7.15V45.78a10,10,0,0,0-3.58-8.18q-3.57-3-11.82-3Z"/><path class="cls-1" d="M200.23,101.33A36.48,36.48,0,0,1,186.52,99a25.64,25.64,0,0,1-9.33-6.18,23.9,23.9,0,0,1-5.34-9.1,35,35,0,0,1-1.7-10.91V27a5.2,5.2,0,0,1,2-3.94,7.74,7.74,0,0,1,5.28-1.76,7.07,7.07,0,0,1,5,1.76A5.33,5.33,0,0,1,184.34,27V72.71q0,15.41,15.89,15.4T216,72.71V27A5.17,5.17,0,0,1,218,23a7.35,7.35,0,0,1,5-1.76A7.7,7.7,0,0,1,228.3,23a5.18,5.18,0,0,1,2,3.94V72.83a35,35,0,0,1-1.7,10.91,23.9,23.9,0,0,1-5.34,9.1A25.68,25.68,0,0,1,213.93,99,36.42,36.42,0,0,1,200.23,101.33Z"/><path class="cls-1" d="M244.37,27a5.2,5.2,0,0,1,2-3.94,7.74,7.74,0,0,1,5.28-1.76,7.16,7.16,0,0,1,4.49,1.4,6,6,0,0,1,2.3,3.21l32.63,47.67V27A5.23,5.23,0,0,1,293,23a7.65,7.65,0,0,1,5.33-1.76A6.9,6.9,0,0,1,303.25,23,5.29,5.29,0,0,1,305.13,27V95.63a5.26,5.26,0,0,1-1.88,3.94,6.9,6.9,0,0,1-4.91,1.76,8.68,8.68,0,0,1-4.42-1,5.79,5.79,0,0,1-2.49-2.73l-.36-.61L258.56,49.79V95.63a5.26,5.26,0,0,1-1.88,3.94,7.07,7.07,0,0,1-5,1.76,7.74,7.74,0,0,1-5.28-1.76,5.17,5.17,0,0,1-2-3.94Z"/><path class="cls-1" d="M381.54,92.6a5.47,5.47,0,0,1-.49-1.82,5.63,5.63,0,0,1,.19-2.19,7,7,0,0,1,1-2.06,4.11,4.11,0,0,1,1.88-1.45,7.72,7.72,0,0,1,3-.73,5.59,5.59,0,0,1,2.24.42,8.49,8.49,0,0,1,1.82,1.1c.56.44,1.13.87,1.7,1.27q3.51,2.67,11,2.67a10.51,10.51,0,0,0,6.25-1.7,5.51,5.51,0,0,0,.18-8.91,19.76,19.76,0,0,0-5.52-2.79q-3.33-1.16-7.15-2.31A31.72,31.72,0,0,1,390.45,71a17.8,17.8,0,0,1-5.52-5.16,14.71,14.71,0,0,1-2.18-8.49,17.55,17.55,0,0,1,5.94-13.76q5.94-5.28,16.38-5.28a36,36,0,0,1,8,.79,27.29,27.29,0,0,1,5.64,1.88,13,13,0,0,1,3.52,2.37A8.35,8.35,0,0,1,424,45.66a7.33,7.33,0,0,1,.66,3.94,4.44,4.44,0,0,1-1.88,3.46,5.51,5.51,0,0,1-4.48,1,15.56,15.56,0,0,1-3.76-1.51c-.65-.33-1.68-.79-3.1-1.4a16.85,16.85,0,0,0-6.36-.91,8.33,8.33,0,0,0-5.89,1.88,6.16,6.16,0,0,0-2,4.67,4,4,0,0,0,2.13,3.58,25.16,25.16,0,0,0,5.33,2.3q3.21,1,7,2.19a26.79,26.79,0,0,1,7,3.27,16.36,16.36,0,0,1,7.46,14.73q0,8.51-5.94,13.47t-16.26,5a39.42,39.42,0,0,1-7.33-.67A33.08,33.08,0,0,1,390,98.78,24.59,24.59,0,0,1,384.81,96,11.83,11.83,0,0,1,381.54,92.6Z"/><path class="cls-1" d="M292.06.11l0,17.16h0s.13,0,.3,0h13.09a.5.5,0,0,0,.3-.09V0s-.11,0-.3,0H292.38A.42.42,0,0,0,292.06.11Z"/><path class="cls-1" d="M317.22,15a.48.48,0,0,0,.34.15l7.44,0V2l-7.44.15a.48.48,0,0,0-.34.15,6.47,6.47,0,0,1-4.71,1.85,5.29,5.29,0,0,1-2.78-.86V14a5.18,5.18,0,0,1,2.73-.86A6.48,6.48,0,0,1,317.22,15Z"/><path class="cls-1" d="M288.12,14V3.26c-11.94,3.05-17.28,9.22-16.77,19.32h0l.13-.09a.72.72,0,0,0,.37-.07l0-.17a15.14,15.14,0,0,1,3.43-5.77C278.83,13,283.54,13,288.12,14Z"/><path class="cls-1" d="M293.85,81.18c0,2.6,3.32,3.3,5.07,3.3s5.05-.7,5.08-3.33l-2.45-59.88H296.3Z"/><path class="cls-1" d="M182.39,117.28A17.06,17.06,0,0,1,174,113.4a16.49,16.49,0,0,0,7.35,5.21,38.78,38.78,0,0,1-5.43,5.44c-7.8-3.93-12.45-11.42-12.87-12.12,4.38,7.46,8.35,11.34,11.25,13.36a32.25,32.25,0,0,1-9.81,4.82A57.36,57.36,0,0,0,160,119.05c1.79,5.56,2.37,9.2,2.43,11.58-.22.05-.43.11-.65.15a31.18,31.18,0,0,1-7.58.62A26.75,26.75,0,0,0,157.12,116a1.55,1.55,0,0,0-.12-.42l-4.07-9.09,10.74-6.28,5.52,6.6a1.52,1.52,0,0,0,.22.22A31.08,31.08,0,0,0,185,113.4,46.26,46.26,0,0,1,182.39,117.28Z"/><path class="cls-1" d="M181.55,105.27a1.21,1.21,0,1,0,1.7-.17A1.2,1.2,0,0,0,181.55,105.27Z"/><path class="cls-1" d="M200.46,98.58a1.3,1.3,0,1,0,1.84-.1A1.31,1.31,0,0,0,200.46,98.58Z"/><path class="cls-1" d="M189.08,104.66a1.81,1.81,0,1,0,2.55-.26A1.81,1.81,0,0,0,189.08,104.66Z"/><path class="cls-1" d="M339,84.21c-.3-.53-.7-1.31-1.12-2.25s-.94-2-1.4-3.24c-.24-.58-.47-1.2-.66-1.81a9.7,9.7,0,0,1-.48-1.85,45.44,45.44,0,0,1-.19-7.37c0-1,.07-1.93.08-2.54s.08-1,.08-1a5,5,0,0,0-.53.87,13.06,13.06,0,0,0-1,2.44,18.68,18.68,0,0,0-.76,3.62,14.06,14.06,0,0,0,.07,4.38,12.74,12.74,0,0,0,.66,2.19,21.2,21.2,0,0,0,.93,1.91,20.6,20.6,0,0,0,2.12,3.06,11.65,11.65,0,0,0,1.86,1.87,1.81,1.81,0,0,0,.88.47S339.3,84.76,339,84.21Z"/><path class="cls-1" d="M368.81,18.68a7.69,7.69,0,0,0-5.34-1.76,6.9,6.9,0,0,0-4.91,1.76,5.26,5.26,0,0,0-1.88,3.94V44.81l-.85.12a21.44,21.44,0,0,0-6.25-4.79,18.71,18.71,0,0,0-8.79-2,27,27,0,0,0-11.4,2.19,21.1,21.1,0,0,0-7.76,5.94,24.89,24.89,0,0,0-4.49,8.79,38.48,38.48,0,0,0-1.45,10.73v7.89a32.33,32.33,0,0,0,1.75,10.73,24.37,24.37,0,0,0,5.28,8.79,24.8,24.8,0,0,0,8.79,6,29.49,29.49,0,0,0,8.22,1.95c1.23-4.65,1.88-10.47-.11-13.25-4.53-1.37-9.73-7.54-9.73-16.2S334.53,55.16,342.78,55H343c8.25.13,12.89,8,12.89,16.62s-5.2,14.83-9.74,16.2c-2,2.81-1.32,8.72-.06,13.4a30.28,30.28,0,0,0,9.56-1.92,22.41,22.41,0,0,0,13.4-13.89,31.76,31.76,0,0,0,1.7-10.55V22.62A5.23,5.23,0,0,0,368.81,18.68Z"/></g></g></svg>